<?xml version="1.0" encoding="UTF-8"?>
<svg xmlns="http://www.w3.org/2000/svg" xmlns:xlink="http://www.w3.org/1999/xlink" width="64" height="64" viewBox="0 0 64 64">
<path fill-rule="nonzero" fill="rgb(13.72549%, 14.901961%, 16.078431%)" fill-opacity="1" d="M 32 8.726562 C 19.105469 8.726562 8.726562 19.105469 8.726562 32 C 8.726562 44.894531 19.105469 55.273438 32 55.273438 C 44.894531 55.273438 55.273438 44.894531 55.273438 32 C 55.273438 19.105469 44.894531 8.726562 32 8.726562 Z M 32 11.636719 C 43.28125 11.636719 52.363281 20.71875 52.363281 32 C 52.363281 43.28125 43.28125 52.363281 32 52.363281 C 20.71875 52.363281 11.636719 43.28125 11.636719 32 C 11.636719 20.71875 20.71875 11.636719 32 11.636719 Z M 29.089844 17.453125 L 29.089844 23.273438 L 34.910156 23.273438 L 34.910156 17.453125 Z M 29.089844 26.183594 L 29.089844 46.546875 L 34.910156 46.546875 L 34.910156 26.183594 Z M 29.089844 26.183594 "/>
</svg>
