<?xml version="1.0" encoding="UTF-8" standalone="no"?>
<svg
   viewBox="0 0 16 16"
   version="1.1"
   id="svg120"
   sodipodi:docname="run-build-configure.svg"
   inkscape:version="1.2.2 (b0a8486541, 2022-12-01)"
   xmlns:inkscape="http://www.inkscape.org/namespaces/inkscape"
   xmlns:sodipodi="http://sodipodi.sourceforge.net/DTD/sodipodi-0.dtd"
   xmlns="http://www.w3.org/2000/svg"
   xmlns:svg="http://www.w3.org/2000/svg">
  <sodipodi:namedview
     id="namedview122"
     pagecolor="#ffffff"
     bordercolor="#666666"
     borderopacity="1.0"
     inkscape:showpageshadow="2"
     inkscape:pageopacity="0.0"
     inkscape:pagecheckerboard="0"
     inkscape:deskcolor="#d1d1d1"
     showgrid="false"
     inkscape:zoom="46.4375"
     inkscape:cx="7.9892328"
     inkscape:cy="7.9892328"
     inkscape:window-width="3840"
     inkscape:window-height="2057"
     inkscape:window-x="0"
     inkscape:window-y="0"
     inkscape:window-maximized="1"
     inkscape:current-layer="svg120" />
  <defs
     id="defs3051">
    <style
       type="text/css"
       id="current-color-scheme">
      .ColorScheme-Text {
        color:#232629;
      }
      </style>
  </defs>
  <path
     style="fill:currentColor;fill-opacity:1;stroke:none;stroke-width:1.16666"
     d="M 6.8333333,1 V 2.2851563 A 5.8333333,5.8333333 0 0 0 4.7871094,3.1373697 L 3.8756511,2.2259114 2.2259114,3.8756511 3.1373697,4.7871094 A 5.8333333,5.8333333 0 0 0 2.2897136,6.8333333 H 1 V 9.166667 h 1.2851563 a 5.8333333,5.8333333 0 0 0 0.8522134,2.046223 l -0.9114583,0.911459 1.6497397,1.64974 0.9114583,-0.911458 a 5.8333333,5.8333333 0 0 0 2.0462239,0.847655 V 15 H 9.166667 V 13.714844 12.513998 A 4.6666667,4.6666667 0 0 1 8,12.666667 4.6666667,4.6666667 0 0 1 4.6526693,11.251627 4.6666667,4.6666667 0 0 1 3.3333333,8 4.6666667,4.6666667 0 0 1 4.7483724,4.6526693 4.6666667,4.6666667 0 0 1 8,3.3333333 4.6666667,4.6666667 0 0 1 11.347331,4.7483724 4.6666667,4.6666667 0 0 1 12.666667,8 H 15 V 6.8333333 H 13.714844 A 5.8333333,5.8333333 0 0 0 12.862631,4.7871094 L 13.774089,3.8756511 12.124349,2.2259114 11.21289,3.1373697 A 5.8333333,5.8333333 0 0 0 9.166667,2.2897136 V 1 Z m 0,4.6666667 V 10.333333 L 10.333333,8 Z M 10.333333,9.166667 v 1.166666 H 15 V 9.166667 Z m 0,2.333333 v 1.166667 H 15 V 11.5 Z m 0,2.333333 V 15 H 15 v -1.166667 z"
     class="ColorScheme-Text"
     id="path118" />
</svg>
