<?xml version="1.0" encoding="UTF-8"?>
<svg xmlns="http://www.w3.org/2000/svg" xmlns:xlink="http://www.w3.org/1999/xlink" width="64" height="64" viewBox="0 0 64 64">
<path fill-rule="nonzero" fill="rgb(13.72549%, 14.901961%, 16.078431%)" fill-opacity="1" d="M 49.503906 10.015625 L 40.796875 25.53125 L 34.355469 21.703125 L 31.628906 26.285156 L 46.699219 35.246094 L 49.421875 30.65625 L 43.089844 26.890625 L 51.828125 11.316406 Z M 21.332031 18.667969 C 19.859375 18.667969 18.667969 19.859375 18.667969 21.332031 C 18.667969 22.804688 19.859375 24 21.332031 24 C 22.804688 24 24 22.804688 24 21.332031 C 24 19.859375 22.804688 18.667969 21.332031 18.667969 Z M 12 21.332031 C 11.261719 21.332031 10.667969 21.929688 10.667969 22.667969 C 10.667969 23.402344 11.261719 24 12 24 C 12.738281 24 13.332031 23.402344 13.332031 22.667969 C 13.332031 21.929688 12.738281 21.332031 12 21.332031 Z M 16 26.667969 C 14.527344 26.667969 13.332031 27.859375 13.332031 29.332031 C 13.332031 30.804688 14.527344 32 16 32 C 17.472656 32 18.667969 30.804688 18.667969 29.332031 C 18.667969 27.859375 17.472656 26.667969 16 26.667969 Z M 29.332031 29.332031 C 26.351562 33.503906 20.894531 36.828125 10.667969 37.332031 L 10.667969 40 C 16.304688 48.992188 24 53.332031 34.667969 53.332031 L 37.332031 53.332031 C 40.828125 49.101562 43.621094 45.246094 45.332031 40 L 45.332031 37.332031 L 32 29.332031 Z M 30.746094 32.269531 L 42.285156 39.199219 C 40.757812 43.324219 38.359375 46.941406 35.394531 50.582031 C 26.667969 50.667969 18.808594 46.773438 14.203125 39.546875 C 22.519531 38.71875 27.589844 36.121094 30.746094 32.269531 Z M 30.746094 32.269531 "/>
</svg>
