<?xml version="1.0" encoding="UTF-8" standalone="no"?>
<svg
   viewBox="0 0 16 16"
   version="1.1"
   id="svg1"
   sodipodi:docname="clear.svg"
   inkscape:version="1.3.2 (091e20ef0f, 2023-11-25, custom)"
   xmlns:inkscape="http://www.inkscape.org/namespaces/inkscape"
   xmlns:sodipodi="http://sodipodi.sourceforge.net/DTD/sodipodi-0.dtd"
   xmlns="http://www.w3.org/2000/svg"
   xmlns:svg="http://www.w3.org/2000/svg">
  <sodipodi:namedview
     id="namedview1"
     pagecolor="#ffffff"
     bordercolor="#000000"
     borderopacity="0.25"
     inkscape:showpageshadow="2"
     inkscape:pageopacity="0.0"
     inkscape:pagecheckerboard="0"
     inkscape:deskcolor="#d1d1d1"
     inkscape:zoom="41.807688"
     inkscape:cx="9.1490349"
     inkscape:cy="8.6347754"
     inkscape:window-width="2133"
     inkscape:window-height="1144"
     inkscape:window-x="0"
     inkscape:window-y="0"
     inkscape:window-maximized="1"
     inkscape:current-layer="svg1" />
  <defs
     id="defs3051">
    <style
       type="text/css"
       id="current-color-scheme">
      .ColorScheme-Text {
        color:#232629;
      }
      </style>
  </defs>
  <path
     style="fill:currentColor;fill-opacity:1;stroke:none;stroke-width:1.25"
     d="m 1.1250001,0.49999988 c -0.34517796,0 -0.62499998,0.27982203 -0.62499998,0.62500002 0,0.345178 0.27982202,0.625 0.62499998,0.625 0.3451781,0 0.6250001,-0.279822 0.6250001,-0.625 0,-0.34517799 -0.279822,-0.62500002 -0.6250001,-0.62500002 z m 3.75,0 c -0.3451779,0 -0.6249999,0.27982203 -0.6249999,0.62500002 0,0.345178 0.279822,0.625 0.6249999,0.625 0.3451781,0 0.6250001,-0.279822 0.6250001,-0.625 0,-0.34517799 -0.279822,-0.62500002 -0.6250001,-0.62500002 z m 9.5751949,0 -4.277343,5.38818362 C 9.3284569,5.5671444 8.2638854,5.4780621 6.7500001,5.4999999 5.0552806,7.1163518 3.9384497,7.6364987 0.50000012,7.9999998 V 9.2500002 C 3.1421421,13.464615 4.8432205,15.5 9.2500005,15.5 H 10.5 c 1.342451,-1.729756 2.033899,-2.987289 2.5,-5 V 9.2500002 C 12.448134,8.0117403 11.947505,7.1682549 11.342285,6.5986326 L 15.5,1.3251951 Z M 3.0000001,2.9999998 c -0.6903558,0 -1.2499999,0.5596441 -1.2499999,1.2500001 0,0.6903559 0.5596441,1.25 1.2499999,1.25 0.690356,0 1.2500001,-0.5596441 1.2500001,-1.25 0,-0.690356 -0.5596441,-1.2500001 -1.2500001,-1.2500001 z M 7.4116213,6.876953 c 2.6287417,0.2050175 3.2991097,1.1433798 4.1601557,3.24707 -0.716034,1.933302 -0.590024,2.379518 -1.9799797,4.086914 C 5.6694904,13.868644 4.3159602,12.425673 2.1577151,9.0375975 4.4029426,8.9459351 5.6355344,8.1307855 7.4116213,6.876953 Z"
     class="ColorScheme-Text"
     id="path1" />
</svg>
