<?xml version="1.0" encoding="UTF-8"?>
<svg xmlns="http://www.w3.org/2000/svg" xmlns:xlink="http://www.w3.org/1999/xlink" width="64" height="64" viewBox="0 0 64 64">
<path fill-rule="nonzero" fill="rgb(13.72549%, 14.901961%, 16.078431%)" fill-opacity="1" d="M 32 8 C 27.566406 8 23.441406 9.277344 19.875 11.375 L 30.625 22.125 L 33.5 19.25 L 27 12.75 C 27.78125 12.546875 28.558594 12.359375 29.375 12.25 C 29.585938 12.21875 29.789062 12.148438 30 12.125 C 30.671875 12.058594 31.308594 12 32 12 C 43.046875 12 52 20.953125 52 32 C 52 32.972656 51.886719 33.941406 51.75 34.875 C 51.671875 35.421875 51.621094 35.96875 51.5 36.5 C 51.230469 37.644531 50.832031 38.691406 50.375 39.75 C 50.320312 39.871094 50.304688 40.003906 50.25 40.125 C 50.085938 40.492188 49.816406 40.777344 49.625 41.125 C 49.605469 41.15625 49.640625 41.21875 49.625 41.25 L 52.625 44.125 C 54.722656 40.558594 56 36.433594 56 32 C 56 18.746094 45.253906 8 32 8 Z M 11.375 19.875 C 9.277344 23.441406 8 27.566406 8 32 C 8 45.253906 18.746094 56 32 56 C 36.433594 56 40.558594 54.722656 44.125 52.625 L 41.125 49.625 L 33.375 42 L 30.625 44.75 L 37 51.25 C 36.21875 51.453125 35.441406 51.640625 34.625 51.75 C 34.414062 51.78125 34.210938 51.851562 34 51.875 C 33.328125 51.941406 32.691406 52 32 52 C 31.308594 52 30.671875 51.941406 30 51.875 C 29.328125 51.808594 28.652344 51.757812 28 51.625 C 18.886719 49.761719 12 41.664062 12 32 C 12 31.007812 12.109375 30.078125 12.25 29.125 C 12.328125 28.578125 12.378906 28.03125 12.5 27.5 C 12.769531 26.355469 13.167969 25.308594 13.625 24.25 C 13.675781 24.128906 13.695312 23.996094 13.75 23.875 C 13.914062 23.519531 14.183594 23.214844 14.375 22.875 L 14.375 22.75 Z M 11.375 19.875 "/>
</svg>
