<?xml version="1.0" encoding="UTF-8" standalone="no"?>
<svg
   xmlns:dc="http://purl.org/dc/elements/1.1/"
   xmlns:cc="http://creativecommons.org/ns#"
   xmlns:rdf="http://www.w3.org/1999/02/22-rdf-syntax-ns#"
   xmlns:svg="http://www.w3.org/2000/svg"
   xmlns="http://www.w3.org/2000/svg"
   xmlns:sodipodi="http://sodipodi.sourceforge.net/DTD/sodipodi-0.dtd"
   xmlns:inkscape="http://www.inkscape.org/namespaces/inkscape"
   viewBox="0 0 16 16"
   version="1.1"
   id="svg6"
   sodipodi:docname="refresh.svg"
   inkscape:version="0.92.2 5c3e80d, 2017-08-06">
  <metadata
     id="metadata10">
    <rdf:RDF>
      <cc:Work
         rdf:about="">
        <dc:format>image/svg+xml</dc:format>
        <dc:type
           rdf:resource="http://purl.org/dc/dcmitype/StillImage" />
        <dc:title></dc:title>
      </cc:Work>
    </rdf:RDF>
  </metadata>
  <sodipodi:namedview
     pagecolor="#ffffff"
     bordercolor="#666666"
     borderopacity="1"
     objecttolerance="10"
     gridtolerance="10"
     guidetolerance="10"
     inkscape:pageopacity="0"
     inkscape:pageshadow="2"
     inkscape:window-width="1628"
     inkscape:window-height="1129"
     id="namedview8"
     showgrid="false"
     inkscape:zoom="32"
     inkscape:cx="9.4591948"
     inkscape:cy="7.241044"
     inkscape:window-x="932"
     inkscape:window-y="36"
     inkscape:window-maximized="0"
     inkscape:current-layer="svg6" />
  <defs
     id="defs3051">
    <style
       type="text/css"
       id="current-color-scheme">
      .ColorScheme-Text {
        color:#4d4d4d;
      }
      </style>
  </defs>
  <path
     sodipodi:type="inkscape:offset"
     inkscape:radius="0.20619534"
     inkscape:original="M 8 0.29882812 C 6.5766759 0.29882812 5.25333 0.70769632 4.109375 1.3808594 L 4.8300781 2.1035156 L 5.0722656 2.34375 L 7.5585938 4.8300781 L 8.4804688 3.9082031 L 6.3945312 1.8222656 C 6.6452777 1.7566842 6.8964844 1.6971325 7.1582031 1.6621094 C 7.225474 1.6521115 7.2894258 1.6288809 7.3574219 1.6210938 C 7.5731834 1.5991819 7.7784576 1.5820312 8 1.5820312 C 11.544679 1.5820312 14.417969 4.4553209 14.417969 8 C 14.417969 8.3119557 14.381601 8.6224761 14.337891 8.921875 C 14.312281 9.0967703 14.297242 9.2733452 14.257812 9.4433594 C 14.171872 9.8112274 14.043593 10.146322 13.896484 10.486328 C 13.879444 10.525708 13.875232 10.568461 13.857422 10.607422 C 13.804842 10.725078 13.717859 10.816484 13.65625 10.927734 C 13.65055 10.938054 13.66185 10.95823 13.65625 10.96875 L 14.619141 11.890625 C 15.292304 10.746673 15.701172 9.423325 15.701172 8 C 15.701172 3.7463848 12.253612 0.29882812 8 0.29882812 z M 1.3808594 4.109375 C 0.70769606 5.25333 0.29882812 6.576675 0.29882812 8 C 0.29882812 12.253615 3.746388 15.701172 8 15.701172 C 9.4233241 15.701172 10.74667 15.292304 11.890625 14.619141 L 11.169922 13.896484 L 10.927734 13.65625 L 8.4414062 11.208984 L 7.5585938 12.091797 L 9.6054688 14.177734 C 9.3547223 14.243314 9.1035156 14.302868 8.8417969 14.337891 C 8.7745259 14.347891 8.7105742 14.371126 8.6425781 14.378906 C 8.4268166 14.400821 8.2215424 14.417969 8 14.417969 C 7.7784576 14.417969 7.5731834 14.400816 7.3574219 14.378906 C 7.1416606 14.35699 6.9257019 14.341576 6.7167969 14.298828 C 3.792128 13.700355 1.5820312 11.101594 1.5820312 8 C 1.5820312 7.6813198 1.6172574 7.3843555 1.6621094 7.078125 C 1.6877254 6.9032297 1.7027625 6.7266548 1.7421875 6.5566406 C 1.8281275 6.1887726 1.9564058 5.8536778 2.1035156 5.5136719 C 2.1201936 5.4742409 2.1251391 5.4316015 2.1425781 5.3925781 C 2.1947181 5.278513 2.2826002 5.1817146 2.34375 5.0722656 L 2.34375 5.03125 L 1.3808594 4.109375 z "
     style="color:#4d4d4d;fill:currentColor;fill-opacity:1;stroke:none;stroke-width:0.1;stroke-miterlimit:4;stroke-dasharray:none"
     id="path4"
     d="m 8,0.09179687 c -1.4628123,0 -2.8236868,0.42142242 -3.9960938,1.11132813 A 0.20621596,0.20621596 0 0 0 3.9628906,1.5273438 L 4.6835938,2.25 a 0.20621596,0.20621596 0 0 0 0.00195,0 l 0.2421875,0.2402344 2.484375,2.4863281 a 0.20621596,0.20621596 0 0 0 0.2929687,0 l 0.921875,-0.921875 a 0.20621596,0.20621596 0 0 0 0,-0.2929687 L 6.8105469,1.9453125 c 0.1246215,-0.027107 0.2488176,-0.061239 0.375,-0.078125 a 0.20621596,0.20621596 0 0 0 0.00391,-0.00195 C 7.282943,1.8513398 7.3423161,1.8306481 7.3789062,1.8261719 7.5923489,1.8044955 7.7890993,1.7890625 8,1.7890625 c 3.433252,0 6.210938,2.7776853 6.210938,6.2109375 0,0.2959301 -0.03305,0.5971675 -0.07617,0.8925781 -0.02682,0.1831309 -0.04319,0.35326 -0.07813,0.5039063 -0.08191,0.3506172 -0.20476,0.6730276 -0.34961,1.0078126 -0.03372,0.07793 -0.0379,0.118919 -0.03711,0.117187 a 0.20621596,0.20621596 0 0 0 0,0.002 c -0.03425,0.07664 -0.115092,0.163356 -0.19336,0.304687 -0.02011,0.03641 -0.0046,0.03183 -0.0078,0.05469 a 0.20621596,0.20621596 0 0 0 0.04492,0.234376 l 0.96289,0.921874 a 0.20621596,0.20621596 0 0 0 0.320313,-0.04297 C 15.486781,10.82369 15.908203,9.4628131 15.908203,8 15.908203,3.6349704 12.365026,0.09179687 8,0.09179687 Z M 1.3535156,3.9042969 A 0.20621596,0.20621596 0 0 0 1.203125,4.0039062 C 0.51321903,5.1763132 0.09179687,6.5371869 0.09179687,8 c 0,4.365029 3.54317673,7.908203 7.90820313,7.908203 1.4628123,0 2.823687,-0.421422 3.996094,-1.111328 a 0.20621596,0.20621596 0 0 0 0.04101,-0.324219 L 11.316406,13.75 a 0.20621596,0.20621596 0 0 0 -0.002,0 L 11.072266,13.509766 8.5859375,11.0625 a 0.20621596,0.20621596 0 0 0 -0.2910156,0 l -0.8828125,0.882812 a 0.20621596,0.20621596 0 0 0 0,0.291016 l 1.7832031,1.816406 c -0.1266155,0.02767 -0.2526567,0.06292 -0.3808594,0.08008 a 0.20621596,0.20621596 0 0 0 -0.00391,0.002 c -0.094419,0.01403 -0.1549684,0.03489 -0.1914063,0.03906 C 8.4064703,14.195406 8.2102415,14.210938 8,14.210938 c -0.2108992,0 -0.4076486,-0.01544 -0.6210938,-0.03711 -0.219853,-0.02233 -0.4299948,-0.03707 -0.6210937,-0.07617 C 3.928012,13.518596 1.7890625,11.003642 1.7890625,8 c 0,-0.3034853 0.031847,-0.589943 0.076172,-0.8925781 0.026823,-0.1831368 0.043191,-0.3532579 0.078125,-0.5039063 0.08191,-0.3506175 0.2047588,-0.6730282 0.3496094,-1.0078125 a 0.20621596,0.20621596 0 0 0 0,-0.00195 c 0.031276,-0.073944 0.036439,-0.112866 0.037109,-0.1152344 v -0.00195 C 2.3644196,5.4022263 2.4468584,5.3089401 2.5234375,5.171875 a 0.20621596,0.20621596 0 0 0 0.027344,-0.099609 V 5.03125 A 0.20621596,0.20621596 0 0 0 2.4863281,4.8828125 L 1.5234375,3.9609375 A 0.20621596,0.20621596 0 0 0 1.3535156,3.9042969 Z"
     transform="matrix(1.0116078,0,0,1.0116078,-0.09286244,-0.09286243)" />
</svg>
