<?xml version="1.0" encoding="UTF-8"?>
<svg xmlns="http://www.w3.org/2000/svg" xmlns:xlink="http://www.w3.org/1999/xlink" width="64" height="64" viewBox="0 0 64 64">
<path fill-rule="nonzero" fill="rgb(13.72549%, 14.901961%, 16.078431%)" fill-opacity="1" d="M 32 8 C 20.300781 8.015625 10.316406 16.464844 8.367188 28 L 12.460938 28 C 14.355469 18.710938 22.515625 12.027344 32 12 C 39.925781 12.027344 47.085938 16.734375 50.257812 24 L 36 24 L 36 28 L 56 28 L 56 8 L 52 8 L 52 18.757812 C 47.558594 12.046875 40.046875 8.003906 32 8 Z M 8 36 L 8 56 L 12 56 L 12 45.203125 C 16.433594 51.929688 23.945312 55.984375 32 56 C 43.699219 55.984375 53.683594 47.535156 55.632812 36 L 51.539062 36 C 49.644531 45.289062 41.484375 51.972656 32 52 C 24.089844 51.957031 16.945312 47.25 13.78125 40 L 28 40 L 28 36 Z M 8 36 "/>
</svg>
