<?xml version="1.0" encoding="UTF-8"?>
<svg xmlns="http://www.w3.org/2000/svg" xmlns:xlink="http://www.w3.org/1999/xlink" width="64" height="64" viewBox="0 0 64 64">
<path fill-rule="nonzero" fill="rgb(13.72549%, 14.901961%, 16.078431%)" fill-opacity="1" d="M 0 2.878906 L 0 61.121094 L 64 61.121094 L 64 2.878906 Z M 4 13.121094 L 60 13.121094 L 60 57.121094 L 4 57.121094 Z M 12 17.121094 L 12 33.121094 L 28 33.121094 L 28 17.121094 Z M 36 17.121094 L 36 33.121094 L 52 33.121094 L 52 17.121094 Z M 16 21.121094 L 24 21.121094 L 24 29.121094 L 16 29.121094 Z M 40 21.121094 L 48 21.121094 L 48 29.121094 L 40 29.121094 Z M 12 37.121094 L 12 53.121094 L 28 53.121094 L 28 37.121094 Z M 36 37.121094 L 36 53.121094 L 52 53.121094 L 52 37.121094 Z M 16 41.121094 L 24 41.121094 L 24 49.121094 L 16 49.121094 Z M 40 41.121094 L 48 41.121094 L 48 49.121094 L 40 49.121094 Z M 40 41.121094 "/>
</svg>
