<?xml version="1.0" encoding="UTF-8"?>
<svg xmlns="http://www.w3.org/2000/svg" xmlns:xlink="http://www.w3.org/1999/xlink" width="64" height="64" viewBox="0 0 64 64">
<path fill-rule="nonzero" fill="rgb(13.72549%, 14.901961%, 16.078431%)" fill-opacity="1" d="M 8 8 L 8 56 L 28 56 L 28 52 L 20 52 L 20 40 L 32 40 L 32 36 L 15.875 36 L 15.875 52 L 12 52 L 12 12 L 20 12 L 20 28 L 44 28 L 44 12 L 45.125 12 L 52 18.875 L 52 28 L 56 28 L 56 17.125 L 46.875 8 Z M 24 12 L 31.625 12 L 31.625 24 L 24 24 Z M 48 32 L 32 48 L 32 56 L 40 56 L 56 40 Z M 46.757812 38.757812 L 49.125 41.125 L 42.375 47.875 L 42.375 47.9375 L 37.25 53.125 L 34.875 50.75 Z M 46.757812 38.757812 "/>
</svg>
