<?xml version="1.0" encoding="UTF-8"?>
<svg xmlns="http://www.w3.org/2000/svg" xmlns:xlink="http://www.w3.org/1999/xlink" width="64" height="64" viewBox="0 0 64 64">
<path fill-rule="nonzero" fill="rgb(13.72549%, 14.901961%, 16.078431%)" fill-opacity="1" d="M 8.726562 8.722656 L 8.726562 55.273438 L 55.273438 55.273438 L 55.273438 18.328125 L 55.25 18.328125 L 55.273438 18.300781 L 45.691406 8.722656 L 45.671875 8.75 L 45.671875 8.722656 Z M 11.636719 11.636719 L 20.363281 11.636719 L 20.363281 26.183594 L 43.636719 26.183594 L 43.636719 11.636719 L 44.488281 11.636719 L 52.363281 19.511719 L 52.363281 52.363281 L 46.546875 52.363281 L 46.546875 32 L 17.453125 32 L 17.453125 52.363281 L 11.636719 52.363281 Z M 23.273438 11.636719 L 34.621094 11.636719 L 34.621094 23.273438 L 23.273438 23.273438 Z M 20.363281 34.910156 L 43.636719 34.910156 L 43.636719 52.363281 L 20.363281 52.363281 Z M 20.363281 34.910156 "/>
</svg>
