<?xml version="1.0" encoding="UTF-8"?>
<svg xmlns="http://www.w3.org/2000/svg" xmlns:xlink="http://www.w3.org/1999/xlink" width="64" height="64" viewBox="0 0 64 64">
<path fill-rule="nonzero" fill="rgb(13.72549%, 14.901961%, 16.078431%)" fill-opacity="1" d="M 32 8 C 18.746094 8 8 18.746094 8 32 C 8 45.253906 18.746094 56 32 56 C 37.320312 55.980469 42.480469 54.191406 46.675781 50.917969 L 54.878906 59.121094 C 56.050781 60.292969 57.949219 60.292969 59.121094 59.121094 C 60.292969 57.949219 60.292969 56.050781 59.121094 54.878906 L 50.917969 46.675781 C 54.191406 42.480469 55.980469 37.320312 56 32 C 56 18.746094 45.253906 8 32 8 Z M 32 12 C 43.046875 12 52 20.953125 52 32 C 52 43.046875 43.046875 52 32 52 C 20.953125 52 12 43.046875 12 32 C 12 20.953125 20.953125 12 32 12 Z M 20 28 L 20 36 L 44 36 L 44 28 Z M 20 28 "/>
</svg>
