<?xml version="1.0" encoding="UTF-8"?>
<svg xmlns="http://www.w3.org/2000/svg" xmlns:xlink="http://www.w3.org/1999/xlink" width="64" height="64" viewBox="0 0 64 64">
<path fill-rule="nonzero" fill="rgb(13.72549%, 14.901961%, 16.078431%)" fill-opacity="1" d="M 8 8 L 8 16 L 12 16 L 12 12 L 16 12 L 16 8 Z M 28 8 L 28 12 L 36 12 L 36 8 Z M 48 8 L 48 12 L 52 12 L 52 16 L 56 16 L 56 8 Z M 32 16 L 32 20 L 41.171875 20 L 28 33.171875 L 30.828125 36 L 44 22.828125 L 44 32 L 48 32 L 48 16 Z M 8 28 L 8 36 L 12 36 L 12 28 Z M 52 28 L 52 36 L 56 36 L 56 28 Z M 8 40 L 8 56 L 24 56 L 24 40 Z M 12 44 L 20 44 L 20 52 L 12 52 Z M 52 48 L 52 52 L 48 52 L 48 56 L 56 56 L 56 48 Z M 28 52 L 28 56 L 36 56 L 36 52 Z M 28 52 "/>
</svg>
