<?xml version="1.0" encoding="UTF-8" standalone="no"?>
<svg
   xmlns:dc="http://purl.org/dc/elements/1.1/"
   xmlns:cc="http://creativecommons.org/ns#"
   xmlns:rdf="http://www.w3.org/1999/02/22-rdf-syntax-ns#"
   xmlns:svg="http://www.w3.org/2000/svg"
   xmlns="http://www.w3.org/2000/svg"
   xmlns:sodipodi="http://sodipodi.sourceforge.net/DTD/sodipodi-0.dtd"
   xmlns:inkscape="http://www.inkscape.org/namespaces/inkscape"
   viewBox="0 0 16 16"
   version="1.1"
   id="svg6"
   sodipodi:docname="zoom-out.svg"
   inkscape:version="0.92.2 5c3e80d, 2017-08-06">
  <metadata
     id="metadata10">
    <rdf:RDF>
      <cc:Work
         rdf:about="">
        <dc:format>image/svg+xml</dc:format>
        <dc:type
           rdf:resource="http://purl.org/dc/dcmitype/StillImage" />
      </cc:Work>
    </rdf:RDF>
  </metadata>
  <sodipodi:namedview
     pagecolor="#ffffff"
     bordercolor="#666666"
     borderopacity="1"
     objecttolerance="10"
     gridtolerance="10"
     guidetolerance="10"
     inkscape:pageopacity="0"
     inkscape:pageshadow="2"
     inkscape:window-width="2560"
     inkscape:window-height="1404"
     id="namedview8"
     showgrid="false"
     inkscape:zoom="41.7193"
     inkscape:cx="2.5203176"
     inkscape:cy="5.1120014"
     inkscape:window-x="0"
     inkscape:window-y="36"
     inkscape:window-maximized="1"
     inkscape:current-layer="svg6" />
  <defs
     id="defs3051">
    <style
       type="text/css"
       id="current-color-scheme">
      .ColorScheme-Text {
        color:#4d4d4d;
      }
      </style>
  </defs>
  <path
     style="color:#4d4d4d;fill:currentColor;fill-opacity:1;stroke:none;stroke-width:1.33333337"
     d="M 0,0 V 1.3333334 2.6666666 6.6666667 9.3333332 H 1.3333334 V 6.6666667 2.6666666 1.3333334 h 1.3333332 4 2.6666666 4.0000008 1.333333 v 1.3333332 4.0000001 2.6666665 4.0000008 1.333333 H 13.333334 9.3333332 6.6666666 V 16 H 9.3333332 13.333334 14.666667 16 V 13.333334 9.3333332 6.6666667 2.6666666 1.3333334 0 h -1.333333 -1.333333 -4.0000008 -2.6666666 -4 -1.3333332 z M 12.390625,2.6666666 7.9999999,7.0572917 V 4 H 6.6666666 V 9.3333332 H 7.9999999 11.999999 V 7.9999999 H 8.9427081 L 13.333334,3.6093749 Z M 0,10.666666 V 16 h 5.3333333 v -5.333334 z m 1.3333334,1.333333 H 4 v 2.666668 H 1.3333334 Z"
     class="ColorScheme-Text"
     id="path4"
     inkscape:connector-curvature="0" />
</svg>
