<?xml version="1.0" encoding="UTF-8" standalone="no"?>
<svg
   xmlns:dc="http://purl.org/dc/elements/1.1/"
   xmlns:cc="http://creativecommons.org/ns#"
   xmlns:rdf="http://www.w3.org/1999/02/22-rdf-syntax-ns#"
   xmlns:svg="http://www.w3.org/2000/svg"
   xmlns="http://www.w3.org/2000/svg"
   xmlns:sodipodi="http://sodipodi.sourceforge.net/DTD/sodipodi-0.dtd"
   xmlns:inkscape="http://www.inkscape.org/namespaces/inkscape"
   viewBox="0 0 16 16"
   version="1.1"
   id="svg6"
   sodipodi:docname="zoom-in.svg"
   inkscape:version="0.92.2 5c3e80d, 2017-08-06">
  <metadata
     id="metadata10">
    <rdf:RDF>
      <cc:Work
         rdf:about="">
        <dc:format>image/svg+xml</dc:format>
        <dc:type
           rdf:resource="http://purl.org/dc/dcmitype/StillImage" />
      </cc:Work>
    </rdf:RDF>
  </metadata>
  <sodipodi:namedview
     pagecolor="#ffffff"
     bordercolor="#666666"
     borderopacity="1"
     objecttolerance="10"
     gridtolerance="10"
     guidetolerance="10"
     inkscape:pageopacity="0"
     inkscape:pageshadow="2"
     inkscape:window-width="2560"
     inkscape:window-height="1404"
     id="namedview8"
     showgrid="false"
     inkscape:zoom="41.7193"
     inkscape:cx="5.8066788"
     inkscape:cy="4.714858"
     inkscape:window-x="0"
     inkscape:window-y="36"
     inkscape:window-maximized="1"
     inkscape:current-layer="svg6" />
  <defs
     id="defs3051">
    <style
       type="text/css"
       id="current-color-scheme">
      .ColorScheme-Text {
        color:#4d4d4d;
      }
      </style>
  </defs>
  <path
     style="color:#4d4d4d;fill:currentColor;fill-opacity:1;stroke:none;stroke-width:1.33333337"
     d="M 0,0 V 1.3333334 2.6666666 H 1.3333334 V 1.3333334 H 2.6666667 V 0 H 1.3333334 Z M 6.6666667,0 V 1.3333334 H 9.3333332 V 0 Z m 6.6666673,0 v 1.3333334 h 1.333333 V 2.6666666 H 16 V 1.3333334 0 H 14.666667 Z M 8,2.6666666 V 4 h 3.057292 L 6.6666667,8.390625 7.6093749,9.3333332 12,4.9427083 v 3.0572916 h 1.333334 V 2.6666666 H 12 Z M 0,6.6666667 V 9.3333332 H 1.3333334 V 6.6666667 Z m 14.666667,0 V 9.3333332 H 16 V 6.6666667 Z M 0,10.666666 V 16 h 5.3333333 v -5.333334 z m 1.3333334,1.333333 H 4 v 2.666668 H 1.3333334 Z m 13.3333336,1.333335 v 1.333333 H 13.333334 V 16 H 14.666667 16 V 13.333334 Z M 6.6666667,14.666667 V 16 h 2.6666665 v -1.333333 z"
     class="ColorScheme-Text"
     id="path4"
     inkscape:connector-curvature="0" />
</svg>
