<?xml version="1.0" encoding="UTF-8"?>
<svg xmlns="http://www.w3.org/2000/svg" xmlns:xlink="http://www.w3.org/1999/xlink" width="64" height="64" viewBox="0 0 64 64">
<path fill-rule="nonzero" fill="rgb(13.72549%, 14.901961%, 16.078431%)" fill-opacity="1" d="M 8.726562 8.726562 L 8.726562 29.089844 L 11.636719 29.089844 L 11.636719 11.636719 L 52.363281 11.636719 L 52.363281 52.363281 L 34.910156 52.363281 L 34.910156 55.273438 L 55.273438 55.273438 L 55.273438 8.726562 Z M 41.578125 20.363281 L 32 29.941406 L 32 23.273438 L 29.089844 23.273438 L 29.089844 34.910156 L 40.726562 34.910156 L 40.726562 32 L 34.058594 32 L 43.636719 22.421875 Z M 8.726562 37.816406 L 8.726562 43.636719 L 11.636719 43.636719 L 11.636719 40.726562 L 14.546875 40.726562 L 14.546875 37.816406 Z M 20.363281 37.816406 L 20.363281 40.726562 L 23.273438 40.726562 L 23.273438 43.636719 L 26.183594 43.636719 L 26.183594 37.816406 Z M 8.726562 49.453125 L 8.726562 55.273438 L 14.546875 55.273438 L 14.546875 52.363281 L 11.636719 52.363281 L 11.636719 49.453125 Z M 23.273438 49.453125 L 23.273438 52.363281 L 20.363281 52.363281 L 20.363281 55.273438 L 26.183594 55.273438 L 26.183594 49.453125 Z M 23.273438 49.453125 "/>
</svg>
