<?xml version="1.0" encoding="UTF-8"?>
<svg xmlns="http://www.w3.org/2000/svg" xmlns:xlink="http://www.w3.org/1999/xlink" width="64" height="64" viewBox="0 0 64 64">
<path fill-rule="nonzero" fill="rgb(13.72549%, 14.901961%, 16.078431%)" fill-opacity="1" d="M 27.332031 4 L 27.332031 9.140625 C 24.414062 9.742188 21.632812 10.902344 19.148438 12.550781 L 15.503906 8.902344 L 8.902344 15.503906 L 12.550781 19.148438 C 10.90625 21.636719 9.757812 24.414062 9.160156 27.332031 L 4 27.332031 L 4 36.667969 L 9.140625 36.667969 C 9.742188 39.585938 10.902344 42.367188 12.550781 44.851562 L 8.902344 48.496094 L 15.503906 55.097656 L 19.148438 51.449219 C 21.636719 53.09375 24.414062 54.242188 27.332031 54.839844 L 27.332031 60 L 36.667969 60 L 36.667969 50.054688 C 35.144531 50.457031 33.574219 50.660156 32 50.667969 C 26.957031 50.667969 22.125 48.625 18.609375 45.007812 C 15.226562 41.523438 13.332031 36.855469 13.332031 32 C 13.332031 26.957031 15.375 22.125 18.992188 18.609375 C 22.476562 15.226562 27.144531 13.332031 32 13.332031 C 37.042969 13.332031 41.875 15.375 45.390625 18.992188 C 48.773438 22.476562 50.667969 27.144531 50.667969 32 L 60 32 L 60 27.332031 L 54.859375 27.332031 C 54.257812 24.414062 53.097656 21.632812 51.449219 19.148438 L 55.097656 15.503906 L 48.496094 8.902344 L 44.851562 12.550781 C 42.363281 10.90625 39.585938 9.757812 36.667969 9.160156 L 36.667969 4 Z M 27.332031 22.667969 L 27.332031 41.332031 L 41.332031 32 Z M 41.332031 36.667969 L 41.332031 41.332031 L 60 41.332031 L 60 36.667969 Z M 41.332031 46 L 41.332031 50.667969 L 60 50.667969 L 60 46 Z M 41.332031 55.332031 L 41.332031 60 L 60 60 L 60 55.332031 Z M 41.332031 55.332031 "/>
</svg>
