<?xml version="1.0" encoding="UTF-8" standalone="no"?>
<svg
   width="64"
   height="64"
   viewBox="0 0 64 64"
   version="1.1"
   id="svg1"
   sodipodi:docname="render_view_config.svg"
   inkscape:version="1.3.2 (091e20ef0f, 2023-11-25, custom)"
   xmlns:inkscape="http://www.inkscape.org/namespaces/inkscape"
   xmlns:sodipodi="http://sodipodi.sourceforge.net/DTD/sodipodi-0.dtd"
   xmlns="http://www.w3.org/2000/svg"
   xmlns:svg="http://www.w3.org/2000/svg">
  <defs
     id="defs1" />
  <sodipodi:namedview
     id="namedview1"
     pagecolor="#ffffff"
     bordercolor="#000000"
     borderopacity="0.25"
     inkscape:showpageshadow="2"
     inkscape:pageopacity="0.0"
     inkscape:pagecheckerboard="0"
     inkscape:deskcolor="#d1d1d1"
     inkscape:zoom="10.451922"
     inkscape:cx="30.855569"
     inkscape:cy="27.650417"
     inkscape:window-width="2133"
     inkscape:window-height="1144"
     inkscape:window-x="0"
     inkscape:window-y="0"
     inkscape:window-maximized="1"
     inkscape:current-layer="svg1" />
  <rect
     style="opacity:1;fill:#f5f5f5;fill-opacity:1;stroke:#ff0000;stroke-width:0;stroke-dasharray:none"
     id="rect2"
     width="52.835358"
     height="42.38055"
     x="5.5919662"
     y="13.832717" />
  <rect
     style="opacity:0.22;fill:#fce94f;fill-opacity:0.99784654;stroke:#ff0000;stroke-width:0;stroke-dasharray:none"
     id="rect1"
     width="9.2182875"
     height="9.7819767"
     x="16.550476"
     y="20.811312" />
  <rect
     style="opacity:0.22;fill:#73d216;fill-opacity:0.997847;stroke:#ff0000;stroke-width:0;stroke-dasharray:none"
     id="rect1-5"
     width="9.2182875"
     height="9.7819767"
     x="38.381607"
     y="21.169926" />
  <rect
     style="opacity:0.22;fill:#729fcf;fill-opacity:0.997847;stroke:#ff0000;stroke-width:0;stroke-dasharray:none"
     id="rect1-2"
     width="9.2182875"
     height="9.7819767"
     x="16.498943"
     y="38.976746" />
  <rect
     style="opacity:0.22;fill:#ef2929;fill-opacity:0.997847;stroke:#ff0000;stroke-width:0;stroke-dasharray:none"
     id="rect1-7"
     width="9.2182875"
     height="9.7819767"
     x="38.063423"
     y="39.031712" />
  <path
     fill-rule="nonzero"
     fill="#232629"
     fill-opacity="1"
     d="M 3.0000001,5.6090089 V 58.390991 H 61 V 5.6090089 Z m 3.625,9.2819821 H 57.375 v 39.875 H 6.625 Z m 7.2499999,3.625 v 14.5 h 14.5 v -14.5 z m 21.75,0 v 14.5 h 14.5 v -14.5 z M 17.5,22.140992 h 7.250001 v 7.249999 H 17.5 Z m 21.75,0 h 7.25 v 7.249999 h -7.25 z m -25.375,14.5 v 14.5 h 14.5 v -14.5 z m 21.75,0 v 14.5 h 14.5 v -14.5 z m -18.125,3.625 h 7.250001 v 7.25 H 17.5 Z m 21.75,0 h 7.25 v 7.25 h -7.25 z m 0,0"
     id="path1"
     style="stroke-width:0.90625" />
</svg>
